<svg xmlns="http://www.w3.org/2000/svg" viewBox="0 0 400 300" width="400" height="300" role="img" aria-label="Cân đếm điện tử">
  <defs>
    <linearGradient id="bg" x1="0" y1="0" x2="0" y2="1">
      <stop offset="0" stop-color="#eaf1ff"/><stop offset="1" stop-color="#dbe7ff"/>
    </linearGradient>
    <linearGradient id="metal" x1="0" y1="0" x2="0" y2="1">
      <stop offset="0" stop-color="#f4f7fb"/><stop offset="1" stop-color="#c9d3e0"/>
    </linearGradient>
    <linearGradient id="blue" x1="0" y1="0" x2="0" y2="1">
      <stop offset="0" stop-color="#3b8bff"/><stop offset="1" stop-color="#0866ff"/>
    </linearGradient>
  </defs>
  <rect width="400" height="300" fill="url(#bg)"/>
  <ellipse cx="200" cy="252" rx="150" ry="20" fill="#0a3f8f" opacity="0.10"/>
  
  <rect x="80" y="180" width="150" height="24" rx="4" fill="url(#metal)" stroke="#9fb0c6"/>
  <rect x="80" y="170" width="150" height="12" rx="3" fill="#eef2f8" stroke="#c3cddb"/>
  <g fill="#6b7688">
    <circle cx="120" cy="168" r="4"/><circle cx="138" cy="164" r="4"/><circle cx="156" cy="168" r="4"/>
    <circle cx="176" cy="164" r="4"/><circle cx="150" cy="160" r="4"/>
  </g>
  <rect x="256" y="118" width="14" height="86" fill="#8894a6"/>
  <rect x="234" y="92" width="82" height="50" rx="6" fill="#1c2b46"/>
  <rect x="240" y="98" width="22" height="18" rx="4" fill="#0d1830"/>
    <text x="251" y="113" text-anchor="middle" font-family="Consolas, monospace" font-size="9.9" font-weight="700" fill="#7CFC5A">2.5</text>
  <rect x="266" y="98" width="22" height="18" rx="4" fill="#0d1830"/>
    <text x="277" y="113" text-anchor="middle" font-family="Consolas, monospace" font-size="9.9" font-weight="700" fill="#5AD7FC">5</text>
  <rect x="292" y="98" width="20" height="18" rx="4" fill="#0d1830"/>
    <text x="302" y="113" text-anchor="middle" font-family="Consolas, monospace" font-size="9.9" font-weight="700" fill="#FFD34E">50</text>
  <text x="275" y="132" text-anchor="middle" font-family="monospace" font-size="8" fill="#8ea2c0">g / u / pcs</text>

  <g>
    <rect x="0" y="270" width="400" height="30" fill="#0866ff"/>
    <text x="200" y="290" text-anchor="middle" font-family="Segoe UI, Arial, sans-serif" font-size="15" font-weight="700" fill="#fff">Cân đếm điện tử</text>
  </g>
</svg>