<svg xmlns="http://www.w3.org/2000/svg" viewBox="0 0 400 300" width="400" height="300" role="img" aria-label="Cân gia súc (cân heo)">
  <defs>
    <linearGradient id="bg" x1="0" y1="0" x2="0" y2="1">
      <stop offset="0" stop-color="#eaf1ff"/><stop offset="1" stop-color="#dbe7ff"/>
    </linearGradient>
    <linearGradient id="metal" x1="0" y1="0" x2="0" y2="1">
      <stop offset="0" stop-color="#f4f7fb"/><stop offset="1" stop-color="#c9d3e0"/>
    </linearGradient>
    <linearGradient id="blue" x1="0" y1="0" x2="0" y2="1">
      <stop offset="0" stop-color="#3b8bff"/><stop offset="1" stop-color="#0866ff"/>
    </linearGradient>
  </defs>
  <rect width="400" height="300" fill="url(#bg)"/>
  <ellipse cx="200" cy="252" rx="150" ry="20" fill="#0a3f8f" opacity="0.10"/>
  
  <polygon points="60,220 250,220 288,244 98,244" fill="#b7c2d2"/>
  <rect x="60" y="212" width="190" height="8" fill="url(#metal)" stroke="#9fb0c6"/>
  <g stroke="#7f8b9e" stroke-width="4" fill="none">
    <rect x="72" y="150" width="170" height="64"/>
    <path d="M72 172 h170 M72 194 h170 M110 150 v64 M156 150 v64 M202 150 v64"/>
  </g>
  <g fill="#f2b8c6">
    <ellipse cx="150" cy="196" rx="42" ry="24"/>
    <ellipse cx="192" cy="188" rx="16" ry="14"/>
    <ellipse cx="198" cy="190" rx="6" ry="7" fill="#e59aad"/>
    <circle cx="196" cy="184" r="2" fill="#7a4a55"/>
    <path d="M112 214 v8 M132 214 v8 M168 214 v8 M186 214 v8" stroke="#e59aad" stroke-width="5"/>
  </g>
  <rect x="292" y="150" width="10" height="64" fill="#8894a6"/>
  <rect x="272" y="128" width="58" height="34" rx="5" fill="#1c2b46"/>
  <rect x="277" y="134" width="48" height="22" rx="4" fill="#0d1830"/>
    <text x="301" y="151" text-anchor="middle" font-family="Consolas, monospace" font-size="12.100000000000001" font-weight="700" fill="#7CFC5A">325</text>

  <g>
    <rect x="0" y="270" width="400" height="30" fill="#0866ff"/>
    <text x="200" y="290" text-anchor="middle" font-family="Segoe UI, Arial, sans-serif" font-size="15" font-weight="700" fill="#fff">Cân gia súc (cân heo)</text>
  </g>
</svg>