<svg xmlns="http://www.w3.org/2000/svg" viewBox="0 0 400 300" width="400" height="300" role="img" aria-label="Cân ô tô / trạm cân xe tải">
  <defs>
    <linearGradient id="bg" x1="0" y1="0" x2="0" y2="1">
      <stop offset="0" stop-color="#eaf1ff"/><stop offset="1" stop-color="#dbe7ff"/>
    </linearGradient>
    <linearGradient id="metal" x1="0" y1="0" x2="0" y2="1">
      <stop offset="0" stop-color="#f4f7fb"/><stop offset="1" stop-color="#c9d3e0"/>
    </linearGradient>
    <linearGradient id="blue" x1="0" y1="0" x2="0" y2="1">
      <stop offset="0" stop-color="#3b8bff"/><stop offset="1" stop-color="#0866ff"/>
    </linearGradient>
  </defs>
  <rect width="400" height="300" fill="url(#bg)"/>
  <ellipse cx="200" cy="252" rx="150" ry="20" fill="#0a3f8f" opacity="0.10"/>
  
  <rect x="40" y="196" width="300" height="18" fill="url(#metal)" stroke="#9fb0c6"/>
  <rect x="40" y="214" width="300" height="8" fill="#9aa6b8"/>
  <g>
    <rect x="86" y="150" width="120" height="34" rx="3" fill="#3b8bff"/>
    <rect x="206" y="140" width="48" height="44" rx="4" fill="#0866ff"/>
    <rect x="214" y="150" width="30" height="20" rx="2" fill="#cfe0ff"/>
    <circle cx="118" cy="190" r="12" fill="#26303f"/><circle cx="118" cy="190" r="5" fill="#7f8b9e"/>
    <circle cx="176" cy="190" r="12" fill="#26303f"/><circle cx="176" cy="190" r="5" fill="#7f8b9e"/>
    <circle cx="232" cy="190" r="12" fill="#26303f"/><circle cx="232" cy="190" r="5" fill="#7f8b9e"/>
  </g>
  <rect x="290" y="150" width="44" height="46" rx="4" fill="#e7edf6" stroke="#b9c4d4"/>
  <rect x="298" y="158" width="28" height="18" rx="2" fill="#1c2b46"/>
  <rect x="300" y="161" width="24" height="12" rx="4" fill="#0d1830"/>
    <text x="312" y="173" text-anchor="middle" font-family="Consolas, monospace" font-size="6.6000000000000005" font-weight="700" fill="#7CFC5A">40T</text>

  <g>
    <rect x="0" y="270" width="400" height="30" fill="#0866ff"/>
    <text x="200" y="290" text-anchor="middle" font-family="Segoe UI, Arial, sans-serif" font-size="15" font-weight="700" fill="#fff">Cân ô tô / trạm cân xe tải</text>
  </g>
</svg>